<?xml version="1.0" encoding="UTF-8"?>
<!DOCTYPE svg PUBLIC "-//W3C//DTD SVG 1.1//EN" "http://www.w3.org/Graphics/SVG/1.1/DTD/svg11.dtd">
<!-- Creator: CorelDRAW 2018 (64-Bit) -->
<svg xmlns="http://www.w3.org/2000/svg" xml:space="preserve" width="117mm" height="41mm" version="1.1" style="shape-rendering:geometricPrecision; text-rendering:geometricPrecision; image-rendering:optimizeQuality; fill-rule:evenodd; clip-rule:evenodd"
viewBox="0 0 11700 4100"
 xmlns:xlink="http://www.w3.org/1999/xlink">
 <defs>
  <style type="text/css">
   <![CDATA[
    .fil0 {fill:#FEFEFE;fill-rule:nonzero}
   ]]>
  </style>
 </defs>
 <g id="Слой_x0020_1">
  <metadata id="CorelCorpID_0Corel-Layer"/>
  <path class="fil0" d="M5037.39 1992.18l123.75 0c96.77,0 167.9,-25.58 167.9,-122.35 0,-86.76 -61.18,-116.68 -179.25,-116.68l-112.4 0 0 239.03zm4.34 176.37l0 392.49 -213.38 0 0 -995.55 338.53 0c250.24,0 384.01,89.56 384.01,287.24 0,149.4 -85.35,224.8 -192.07,260.26 86.75,34.19 103.85,109.59 251.85,448.05l-227.61 0c-137.97,-295.78 -112.4,-392.49 -257.45,-392.49l-83.88 0z"/>
  <path class="fil0" d="M6481.56 2063.23c0,-226.13 -103.85,-327.11 -258.93,-327.11 -140.71,0 -251.71,105.26 -251.71,327.11 0,221.93 115.2,327.18 264.6,327.18 144.99,0 246.04,-103.92 246.04,-327.18zm-736.77 0c0,-334.18 203.43,-514.77 477.84,-514.77 307.28,0 485.06,194.81 485.06,514.77 0,354.23 -206.23,514.91 -479.31,514.91 -288.71,0 -483.59,-180.58 -483.59,-514.91z"/>
  <path class="fil0" d="M6907.4 2324.96c45.48,29.92 145.06,69.73 246.03,69.73 110.93,0 162.09,-41.28 162.09,-115.21 0,-83.95 -45.48,-103.85 -163.56,-143.65l-34.05 -11.35c-156.48,-52.7 -227.61,-145.13 -227.61,-284.51 0,-180.65 149.33,-291.58 348.48,-291.58 130.83,0 224.66,26.98 281.64,51.16l-49.76 182.05c-69.79,-31.25 -149.33,-46.88 -211.97,-46.88 -96.78,0 -149.4,31.25 -149.4,96.7 0,66.86 35.59,89.63 183.45,140.78l37.14 12.83c174.84,59.77 218.99,160.75 218.99,281.56 0,202.02 -157.95,311.55 -369.86,311.55 -122.28,0 -247.43,-32.72 -315.76,-69.65l44.15 -183.53z"/>
  <path class="fil0" d="M8053.26 2178.43l342.74 0 -166.36 -467.88 -5.67 0 -170.71 467.88zm384.01 116.68l-425.21 0 -96.77 266 -129.36 0 379.66 -995.62 128.1 0 372.59 995.62 -133.7 0 -95.31 -266z"/>
  <polygon class="fil0" points="9110.41,2561.04 8982.46,2561.04 8982.46,1684.97 8688,1684.97 8688,1565.49 9404.87,1565.49 9404.87,1684.97 9110.41,1684.97 "/>
  <path class="fil0" d="M10305.61 2063.23c0,-273.08 -122.28,-392.56 -318.56,-392.56 -174.91,0 -310.08,126.63 -310.08,392.56 0,261.8 130.83,392.63 327.11,392.63 186.32,0 301.53,-135.17 301.53,-392.63zm-765.22 0c0,-318.56 183.46,-512.03 446.66,-512.03 295.85,0 455.06,210.57 455.06,512.03 0,338.46 -190.53,512.11 -450.86,512.11 -275.88,0 -450.86,-196.35 -450.86,-512.11z"/>
  <polygon class="fil0" points="11678.79,2561.04 11550.77,2561.04 11489.66,1783.07 11237.88,2561.04 11104.18,2561.04 10853.8,1785.88 10791.23,2561.04 10663.2,2561.04 10748.62,1565.49 10905.1,1565.49 11173.83,2421.66 11436.96,1565.49 11593.51,1565.49 "/>
  <path class="fil0" d="M2382.8 2351.06c-156.19,173.17 -423.03,186.34 -595.64,29.59 -172.51,-156.75 -185.87,-424.43 -29.86,-597.41 156.28,-173.16 422.94,-186.24 595.82,-29.49 172.61,156.66 185.87,424.15 29.68,597.31z"/>
  <path class="fil0" d="M1093.11 2081.81c0,0 234.94,-119.65 371,-651.39 136.07,-531.73 643.13,-779.1 643.13,-779.1 0,0 -1088.33,-1079.98 -1912.69,614.29 0,0 671.97,131.89 898.56,816.2z"/>
  <path class="fil0" d="M1192.08 235.06c0,0 838.83,-164.91 1335.51,886.23 0,0 579.31,187.54 1088.33,-350.51 0,0 -851.17,-1164.38 -2423.84,-535.72z"/>
  <path class="fil0" d="M2560.51 2878.16c0,0 -221.02,-143.67 -749.51,4.55 -528.4,148.3 -996.33,-167.05 -996.33,-167.05 0,0 -390.84,1482.62 1488.74,1349.05 0,0 -222.05,-647.86 257.1,-1186.55z"/>
  <path class="fil0" d="M911.97 3716.35c0,0 -562.44,-643.97 99.24,-1599.85 0,0 -127.25,-595.27 -847.83,-767.05 0,0 -582.47,1319.56 748.59,2366.9z"/>
  <path class="fil0" d="M2518.96 1215.52c0,0 -13.82,263.32 378.88,646.84 392.71,383.52 353.66,946.24 353.66,946.24 0,0 1479.27,-403.09 423.5,-1963.71 0,0 -449.93,516.25 -1156.04,370.63z"/>
  <path class="fil0" d="M4069.37 2223.99c0,0 -276.3,808.97 -1435.03,714.18 0,0 -451.79,407.92 -240.13,1117.83 0,0 1434.11,-155.73 1675.16,-1832.01z"/>
 </g>
</svg>
